<mxfile host="app.diagrams.net" agent="Mozilla/5.0 (Windows NT 10.0; Win64; x64) AppleWebKit/537.36 (KHTML, like Gecko) Chrome/130.0.0.0 Safari/537.36" version="24.7.17">
  <diagram name="Page-1" id="ZCTMiWs0JSje96NZDpm0">
    <mxGraphModel dx="2074" dy="1098" grid="1" gridSize="10" guides="1" tooltips="1" connect="1" arrows="1" fold="1" page="1" pageScale="1" pageWidth="827" pageHeight="1169" math="0" shadow="0">
      <root>
        <mxCell id="0" />
        <mxCell id="1" parent="0" />
        <mxCell id="m0RW51oXu2SVVsjVAg_N-11" value="core" style="rounded=0;whiteSpace=wrap;html=1;fillColor=#d5e8d4;strokeColor=#82b366;" vertex="1" parent="1">
          <mxGeometry x="470" y="40" width="160" height="50" as="geometry" />
        </mxCell>
        <mxCell id="m0RW51oXu2SVVsjVAg_N-12" value="level" style="rounded=0;whiteSpace=wrap;html=1;fillColor=#ffe6cc;strokeColor=#d79b00;" vertex="1" parent="1">
          <mxGeometry x="470" y="100" width="160" height="50" as="geometry" />
        </mxCell>
        <mxCell id="m0RW51oXu2SVVsjVAg_N-13" value="container" style="rounded=0;whiteSpace=wrap;html=1;fillColor=#dae8fc;strokeColor=#6c8ebf;" vertex="1" parent="1">
          <mxGeometry x="470" y="160" width="160" height="50" as="geometry" />
        </mxCell>
        <mxCell id="m0RW51oXu2SVVsjVAg_N-14" value="blob" style="rounded=1;whiteSpace=wrap;html=1;fillColor=#f8cecc;strokeColor=#b85450;" vertex="1" parent="1">
          <mxGeometry x="470" y="220" width="160" height="50" as="geometry" />
        </mxCell>
        <mxCell id="m0RW51oXu2SVVsjVAg_N-15" value="" style="group" vertex="1" connectable="0" parent="1">
          <mxGeometry x="30" y="10" width="320" height="310" as="geometry" />
        </mxCell>
        <mxCell id="m0RW51oXu2SVVsjVAg_N-1" value="" style="rounded=0;whiteSpace=wrap;html=1;fillColor=#d5e8d4;strokeColor=#82b366;" vertex="1" parent="m0RW51oXu2SVVsjVAg_N-15">
          <mxGeometry width="320" height="310" as="geometry" />
        </mxCell>
        <mxCell id="m0RW51oXu2SVVsjVAg_N-2" value="" style="rounded=0;whiteSpace=wrap;html=1;fillColor=#ffe6cc;strokeColor=#d79b00;" vertex="1" parent="m0RW51oXu2SVVsjVAg_N-15">
          <mxGeometry x="6.2745098039215685" y="6.458333333333334" width="94.11764705882352" height="297.08333333333337" as="geometry" />
        </mxCell>
        <mxCell id="m0RW51oXu2SVVsjVAg_N-3" value="" style="rounded=0;whiteSpace=wrap;html=1;fillColor=#dae8fc;strokeColor=#6c8ebf;" vertex="1" parent="m0RW51oXu2SVVsjVAg_N-15">
          <mxGeometry x="112.94117647058823" y="6.458333333333334" width="94.11764705882352" height="297.08333333333337" as="geometry" />
        </mxCell>
        <mxCell id="m0RW51oXu2SVVsjVAg_N-4" value="" style="rounded=0;whiteSpace=wrap;html=1;fillColor=#dae8fc;strokeColor=#6c8ebf;" vertex="1" parent="m0RW51oXu2SVVsjVAg_N-15">
          <mxGeometry x="219.6078431372549" y="6.458333333333334" width="94.11764705882352" height="297.08333333333337" as="geometry" />
        </mxCell>
        <mxCell id="m0RW51oXu2SVVsjVAg_N-5" value="" style="rounded=0;whiteSpace=wrap;html=1;fillColor=#dae8fc;strokeColor=#6c8ebf;" vertex="1" parent="m0RW51oXu2SVVsjVAg_N-15">
          <mxGeometry x="12.549019607843137" y="12.916666666666668" width="81.56862745098039" height="135.625" as="geometry" />
        </mxCell>
        <mxCell id="m0RW51oXu2SVVsjVAg_N-6" value="" style="rounded=0;whiteSpace=wrap;html=1;fillColor=#dae8fc;strokeColor=#6c8ebf;" vertex="1" parent="m0RW51oXu2SVVsjVAg_N-15">
          <mxGeometry x="12.549019607843137" y="161.45833333333334" width="81.56862745098039" height="135.625" as="geometry" />
        </mxCell>
        <mxCell id="m0RW51oXu2SVVsjVAg_N-7" value="" style="rounded=1;whiteSpace=wrap;html=1;fillColor=#f8cecc;strokeColor=#b85450;" vertex="1" parent="m0RW51oXu2SVVsjVAg_N-15">
          <mxGeometry x="18.823529411764707" y="19.375" width="69.01960784313725" height="122.70833333333334" as="geometry" />
        </mxCell>
        <mxCell id="m0RW51oXu2SVVsjVAg_N-8" value="" style="rounded=1;whiteSpace=wrap;html=1;fillColor=#f8cecc;strokeColor=#b85450;" vertex="1" parent="m0RW51oXu2SVVsjVAg_N-15">
          <mxGeometry x="18.823529411764707" y="167.91666666666669" width="69.01960784313725" height="122.70833333333334" as="geometry" />
        </mxCell>
        <mxCell id="m0RW51oXu2SVVsjVAg_N-9" value="" style="rounded=1;whiteSpace=wrap;html=1;fillColor=#f8cecc;strokeColor=#b85450;" vertex="1" parent="m0RW51oXu2SVVsjVAg_N-15">
          <mxGeometry x="119.2156862745098" y="12.916666666666668" width="81.56862745098039" height="284.1666666666667" as="geometry" />
        </mxCell>
        <mxCell id="m0RW51oXu2SVVsjVAg_N-10" value="" style="rounded=1;whiteSpace=wrap;html=1;fillColor=#f8cecc;strokeColor=#b85450;" vertex="1" parent="m0RW51oXu2SVVsjVAg_N-15">
          <mxGeometry x="225.88235294117646" y="12.916666666666668" width="81.56862745098039" height="284.1666666666667" as="geometry" />
        </mxCell>
        <mxCell id="m0RW51oXu2SVVsjVAg_N-42" value="" style="group" vertex="1" connectable="0" parent="1">
          <mxGeometry x="70" y="380" width="600" height="510" as="geometry" />
        </mxCell>
        <mxCell id="m0RW51oXu2SVVsjVAg_N-16" value="" style="rounded=0;whiteSpace=wrap;html=1;fillColor=#d5e8d4;strokeColor=#82b366;" vertex="1" parent="m0RW51oXu2SVVsjVAg_N-42">
          <mxGeometry width="600" height="510" as="geometry" />
        </mxCell>
        <mxCell id="m0RW51oXu2SVVsjVAg_N-18" value="" style="rounded=0;whiteSpace=wrap;html=1;fillColor=#ffe6cc;strokeColor=#d79b00;" vertex="1" parent="m0RW51oXu2SVVsjVAg_N-42">
          <mxGeometry x="10" y="10" width="580" height="240" as="geometry" />
        </mxCell>
        <mxCell id="m0RW51oXu2SVVsjVAg_N-19" value="" style="rounded=0;whiteSpace=wrap;html=1;fillColor=#ffe6cc;strokeColor=#d79b00;" vertex="1" parent="m0RW51oXu2SVVsjVAg_N-42">
          <mxGeometry x="10" y="260" width="580" height="240" as="geometry" />
        </mxCell>
        <mxCell id="m0RW51oXu2SVVsjVAg_N-20" value="" style="rounded=0;whiteSpace=wrap;html=1;fillColor=#ffe6cc;strokeColor=#d79b00;" vertex="1" parent="m0RW51oXu2SVVsjVAg_N-42">
          <mxGeometry x="20" y="20" width="170" height="220" as="geometry" />
        </mxCell>
        <mxCell id="m0RW51oXu2SVVsjVAg_N-22" value="" style="rounded=0;whiteSpace=wrap;html=1;fillColor=#ffe6cc;strokeColor=#d79b00;" vertex="1" parent="m0RW51oXu2SVVsjVAg_N-42">
          <mxGeometry x="410" y="20" width="170" height="220" as="geometry" />
        </mxCell>
        <mxCell id="m0RW51oXu2SVVsjVAg_N-24" value="" style="rounded=0;whiteSpace=wrap;html=1;fillColor=#dae8fc;strokeColor=#6c8ebf;" vertex="1" parent="m0RW51oXu2SVVsjVAg_N-42">
          <mxGeometry x="20" y="270" width="560" height="220" as="geometry" />
        </mxCell>
        <mxCell id="m0RW51oXu2SVVsjVAg_N-25" value="" style="rounded=1;whiteSpace=wrap;html=1;fillColor=#f8cecc;strokeColor=#b85450;" vertex="1" parent="m0RW51oXu2SVVsjVAg_N-42">
          <mxGeometry x="30" y="280" width="540" height="200" as="geometry" />
        </mxCell>
        <mxCell id="m0RW51oXu2SVVsjVAg_N-26" value="" style="rounded=0;whiteSpace=wrap;html=1;fillColor=#dae8fc;strokeColor=#6c8ebf;" vertex="1" parent="m0RW51oXu2SVVsjVAg_N-42">
          <mxGeometry x="30" y="30" width="150" height="200" as="geometry" />
        </mxCell>
        <mxCell id="m0RW51oXu2SVVsjVAg_N-27" value="" style="rounded=0;whiteSpace=wrap;html=1;fillColor=#ffe6cc;strokeColor=#d79b00;" vertex="1" parent="m0RW51oXu2SVVsjVAg_N-42">
          <mxGeometry x="420" y="30" width="150" height="60" as="geometry" />
        </mxCell>
        <mxCell id="m0RW51oXu2SVVsjVAg_N-28" value="" style="rounded=0;whiteSpace=wrap;html=1;fillColor=#ffe6cc;strokeColor=#d79b00;" vertex="1" parent="m0RW51oXu2SVVsjVAg_N-42">
          <mxGeometry x="420" y="100" width="150" height="60" as="geometry" />
        </mxCell>
        <mxCell id="m0RW51oXu2SVVsjVAg_N-29" value="" style="rounded=0;whiteSpace=wrap;html=1;fillColor=#ffe6cc;strokeColor=#d79b00;" vertex="1" parent="m0RW51oXu2SVVsjVAg_N-42">
          <mxGeometry x="420" y="170" width="150" height="60" as="geometry" />
        </mxCell>
        <mxCell id="m0RW51oXu2SVVsjVAg_N-31" value="" style="rounded=0;whiteSpace=wrap;html=1;fillColor=#dae8fc;strokeColor=#6c8ebf;" vertex="1" parent="m0RW51oXu2SVVsjVAg_N-42">
          <mxGeometry x="430" y="40" width="130" height="40" as="geometry" />
        </mxCell>
        <mxCell id="m0RW51oXu2SVVsjVAg_N-32" value="" style="rounded=0;whiteSpace=wrap;html=1;fillColor=#dae8fc;strokeColor=#6c8ebf;" vertex="1" parent="m0RW51oXu2SVVsjVAg_N-42">
          <mxGeometry x="430" y="110" width="130" height="40" as="geometry" />
        </mxCell>
        <mxCell id="m0RW51oXu2SVVsjVAg_N-33" value="" style="rounded=0;whiteSpace=wrap;html=1;fillColor=#dae8fc;strokeColor=#6c8ebf;" vertex="1" parent="m0RW51oXu2SVVsjVAg_N-42">
          <mxGeometry x="430" y="180" width="130" height="40" as="geometry" />
        </mxCell>
        <mxCell id="m0RW51oXu2SVVsjVAg_N-34" value="" style="rounded=1;whiteSpace=wrap;html=1;fillColor=#f8cecc;strokeColor=#b85450;" vertex="1" parent="m0RW51oXu2SVVsjVAg_N-42">
          <mxGeometry x="40" y="40" width="130" height="180" as="geometry" />
        </mxCell>
        <mxCell id="m0RW51oXu2SVVsjVAg_N-36" value="" style="rounded=0;whiteSpace=wrap;html=1;fillColor=#ffe6cc;strokeColor=#d79b00;" vertex="1" parent="m0RW51oXu2SVVsjVAg_N-42">
          <mxGeometry x="215" y="20" width="170" height="220" as="geometry" />
        </mxCell>
        <mxCell id="m0RW51oXu2SVVsjVAg_N-37" value="" style="rounded=0;whiteSpace=wrap;html=1;fillColor=#dae8fc;strokeColor=#6c8ebf;" vertex="1" parent="m0RW51oXu2SVVsjVAg_N-42">
          <mxGeometry x="225" y="30" width="150" height="200" as="geometry" />
        </mxCell>
        <mxCell id="m0RW51oXu2SVVsjVAg_N-38" value="" style="rounded=1;whiteSpace=wrap;html=1;fillColor=#f8cecc;strokeColor=#b85450;" vertex="1" parent="m0RW51oXu2SVVsjVAg_N-42">
          <mxGeometry x="235" y="40" width="130" height="180" as="geometry" />
        </mxCell>
        <mxCell id="m0RW51oXu2SVVsjVAg_N-39" value="" style="rounded=1;whiteSpace=wrap;html=1;fillColor=#f8cecc;strokeColor=#b85450;" vertex="1" parent="m0RW51oXu2SVVsjVAg_N-42">
          <mxGeometry x="440" y="50" width="110" height="20" as="geometry" />
        </mxCell>
        <mxCell id="m0RW51oXu2SVVsjVAg_N-40" value="" style="rounded=1;whiteSpace=wrap;html=1;fillColor=#f8cecc;strokeColor=#b85450;" vertex="1" parent="m0RW51oXu2SVVsjVAg_N-42">
          <mxGeometry x="440" y="120" width="110" height="20" as="geometry" />
        </mxCell>
        <mxCell id="m0RW51oXu2SVVsjVAg_N-41" value="" style="rounded=1;whiteSpace=wrap;html=1;fillColor=#f8cecc;strokeColor=#b85450;" vertex="1" parent="m0RW51oXu2SVVsjVAg_N-42">
          <mxGeometry x="440" y="190" width="110" height="20" as="geometry" />
        </mxCell>
      </root>
    </mxGraphModel>
  </diagram>
</mxfile>
